<?xml version='1.0' encoding='utf-8'?>
<svg xmlns="http://www.w3.org/2000/svg" version="1.1" width="600px" height="976px" viewBox="0 0 600 976"> <g id="layer1"> <g style="fill:rgb(65,144,141); fill-opacity:1.0; stroke-linejoin: miter"> <path d="M263.38824,436.15097Q213.08171,439.31665,178.95984,475.77045Q145.49191,513.7073,147.20921,563.5923Q150.37128,613.8942,186.57556,647.90356Q224.6983,681.6006,274.40015,679.9023Q324.72394,676.8918,358.9673,640.5244Q392.5534,602.6647,390.96948,552.77515Q388.1292,502.6426,351.47144,468.02563Q313.2961,434.37216,263.59598,436.14124"/> </g> <g style="fill:rgb(0,0,0); fill-opacity:0.03137255; stroke-linejoin: miter"> <path d="M268.5315,436.0529Q266.0781,436.0529,263.59598,436.14124L263.38824,436.15097Q213.08171,439.31665,178.95984,475.77045Q145.49191,513.7073,147.20921,563.5923Q150.37128,613.8942,186.57556,647.90356Q195.74562,656.00903,205.58563,662.0666Q234.6908,679.98376,269.65732,679.98376Q271.30637,679.98376,272.9684,679.9439L272.97116,679.9439L272.97113,487.08524L272.97388,487.08524Q272.9725,487.08487,272.97113,487.08453L272.97113,487.08453L272.97113,486.63055L272.97388,486.63055Q272.97256,486.63022,272.97125,486.6299L272.97113,486.6299L272.97113,486.54355L272.97388,486.54355Q272.9725,486.5426,272.9711,486.54166L272.97113,486.54166L272.97113,484.2453L272.97388,484.2453Q272.9725,484.24442,272.97116,484.24356L272.97113,484.24356L272.97113,436.12607L272.97385,436.12607Q270.7646,436.0529,268.5315,436.0529 Z"/> </g> <g style="fill:rgb(255,204,164); fill-opacity:1.0; stroke-linejoin: miter"> <path d="M223.70944,503.67154Q223.8916,503.70596,224.06433,503.81985Q223.8916,503.70596,223.70944,503.67154Q223.52722,503.637,223.33554,503.68192L223.33554,503.68192Q223.52722,503.637,223.70944,503.67154L223.70944,503.67154 Z M214.01105,513.5984Q214.0151,513.5991,214.01791,513.60254Q214.0151,513.5991,214.01105,513.5984Q214.00699,513.59753,214.00165,513.5996L214.00165,513.5996Q214.00699,513.59753,214.01105,513.5984L214.01105,513.5984 Z M214.87323,538.719L214.87323,538.719Q213.2143,538.84973,207.53873,538.52136L207.53873,538.52136Q213.2143,538.84973,214.87323,538.719L214.87323,538.719 Z M209.93274,520.37805L206.51157,538.4603L206.51157,538.4603Q206.42273,538.45483,206.33307,538.44934Q207.61172,533.729,209.38348,521.14514Q209.66891,520.7445,209.93268,520.37805L209.93274,520.37805 Z M223.7797,503.28873Q223.08804,503.15787,222.3121,503.85477Q222.05139,504.10233,221.84659,504.39273Q220.98938,505.95633,220.6294,506.2742L213.78802,513.2792Q213.78513,513.2772,213.78162,513.2766Q213.5647,513.2355,211.1401,518.0863L209.48279,520.344L209.4111,518.99316Q208.93143,518.3213,210.41815,523.9429Q208.99207,519.7533,208.58978,517.6952Q207.36578,533.4701,205.93073,538.76807Q214.47263,539.38403,215.58255,538.98474Q217.3606,538.7162,220.36465,538.067Q227.45493,536.06775,228.70422,535.9149Q231.12302,535.4175,237.06976,534.8567Q237.77658,534.73486,238.04971,534.0868Q238.81522,532.4861,237.87549,531.5242Q239.33804,531.303,239.42416,530.0492Q239.56207,528.25073,239.00934,527.3772Q240.59055,525.6819,240.62915,524.6753Q240.80185,523.5039,240.05814,522.61865Q241.20474,520.89575,240.33475,519.2169Q239.7514,517.8479,238.47546,517.45874L223.47281,513.83716L221.47284,514.3368Q221.72745,513.1848,221.92044,512.83813Q224.17722,510.31424,224.85928,507.69852Q225.67258,504.59818,224.3464,503.54556L224.32358,503.52884Q224.0585,503.34158,223.7797,503.28873L223.7797,503.28873 Z"/> </g> <g style="fill:rgb(255,255,255); fill-opacity:1.0; stroke-linejoin: miter"> <path d="M210.47339,515.9337L202.80072,516.0947L201.51376,540.70337L208.30508,541.7605L210.46951,515.97974"/> </g> <g style="fill:rgb(0,0,0); fill-opacity:1.0; stroke-linejoin: miter"> <path d="M205.07217,514.0366L155.0243,514.71014L155.02585,514.71014Q149.25017,529.82776,147.69684,546.3792L147.69687,546.3792L202.79239,546.0138L205.07184,514.0415L205.07217,514.0366 Z"/> </g> <g style="fill:rgb(255,231,158); fill-opacity:1.0; stroke-linejoin: miter"> <path d="M291.81656,500.35727Q291.94055,501.04648,291.46152,501.394Q290.80692,501.76596,290.32626,501.4022Q276.03342,487.59387,268.76895,484.03082Q261.6082,480.25342,255.57477,481.28436Q249.3912,482.32556,242.23074,488.38928Q234.86713,494.31964,220.26627,512.70825Q219.20532,513.35364,218.69125,512.2831Q218.55447,511.81607,218.85251,511.4058Q225.29398,503.3826,228.74176,499.40176Q234.5592,492.6366,239.29678,488.39172Q248.06036,480.50464,255.34894,479.36707Q262.53342,478.1792,271.04312,483.0891Q278.8331,487.43066,291.79724,500.29623"/> </g> <g style="fill:rgb(255,231,158); fill-opacity:1.0; stroke-linejoin: miter"> <path d="M305.19354,550.401Q305.0285,549.6835,304.42197,549.5458Q303.6356,549.4568,303.3213,550.00684Q295.2144,569.25916,289.66583,575.70483Q284.30637,582.3152,278.049,583.81226Q271.64246,585.3613,262.21603,582.45996Q252.64835,579.7717,230.9372,568.03345Q229.64517,567.84814,229.59076,569.0952Q229.65161,569.603,230.10919,569.8766Q239.65054,574.9686,244.62796,577.3911Q253.0463,581.5255,259.3794,583.67017Q271.10873,587.67114,278.62314,585.75854Q286.0578,583.9376,292.25305,575.6753Q297.98764,568.2599,305.20013,550.4679"/> </g> <g style="fill:rgb(255,255,255); fill-opacity:1.0; stroke-linejoin: miter"> <path d="M287.6302,530.12854Q288.91714,541.1146,282.43884,549.8751Q275.76794,558.5056,264.76428,560.2511Q253.6911,561.5814,244.92398,555.09924Q236.1177,548.19666,234.50897,537.3385Q233.19699,526.35425,239.6575,517.5775Q246.31183,508.93112,257.3123,507.1633Q268.3831,505.81094,277.1608,512.2726Q285.98038,519.1548,287.61383,530.00806 M308.75528,527.28564Q305.76825,507.58957,290.23474,495.43808Q274.22656,483.61658,254.57141,486.0241Q235.01538,488.95367,222.72614,504.6309Q211.11624,520.197,213.37073,540.0834Q216.34174,559.78186,231.8674,571.9464Q247.86832,583.781,267.5251,581.3872Q287.083,578.4719,299.3829,562.8047Q311.00394,547.24915,308.76538,527.3612"/> </g> <g style="fill:rgb(255,0,0); fill-opacity:1.0; stroke-linejoin: miter"> <path d="M240.6412,551.0228Q235.67722,545.22363,234.50897,537.3385Q233.82104,531.579,235.27008,526.4263L235.27008,526.4259L214.02527,523.63513L214.02533,523.6355Q212.39227,531.4525,213.37073,540.0834Q215.03317,551.1056,220.62628,559.7689L220.6264,559.76965L240.64124,551.0233 Z"/> </g> <g style="fill:rgb(255,0,0); fill-opacity:1.0; stroke-linejoin: miter"> <path d="M285.24017,544.93665Q288.50546,538.0366,287.5602,530.1216Q286.7102,524.3839,283.95782,519.7931L283.95782,519.79285L303.72226,511.5167L303.7223,511.51694Q307.35248,518.63,308.67676,527.2147Q309.9697,538.28625,306.85013,548.1151L306.8502,548.1157L285.2402,544.93726 Z"/> </g> <g style="fill:rgb(255,0,0); fill-opacity:1.0; stroke-linejoin: miter"> <path d="M272.3136,509.43765Q265.15872,506.2479,257.06018,507.4012Q251.19308,508.40646,246.54712,511.33676L246.54675,511.33676L237.59705,491.2516L237.59732,491.2516Q244.81079,487.36206,253.58743,485.8042Q264.91656,484.22083,275.07294,487.19318L275.07358,487.1931L272.3142,509.43753 Z"/> </g> <g style="fill:rgb(255,0,0); fill-opacity:1.0; stroke-linejoin: miter"> <path d="M278.2109,554.1304Q272.41165,559.09424,264.5265,560.2623Q258.76688,560.9502,253.6142,559.5012L253.61389,559.50134L250.82315,580.7457L250.8234,580.7457Q258.64053,582.3789,267.27142,581.4005Q278.2937,579.7383,286.9572,574.14514L286.95786,574.14514L278.21146,554.13025 Z"/> </g> <g style="fill:rgb(255,0,0); fill-opacity:0.050980393; stroke-linejoin: miter"> <path d="M213.47925,513.6798L213.41415,513.7554L213.41422,513.7554Q212.78555,514.7943,211.1401,518.0863L209.48279,520.344L209.81802,517.9293L209.37161,518.4474L208.35666,519.62537Q207.13504,521.3613,207.1156,522.15686Q207.06628,522.79834,207.54819,523.25244Q207.99432,523.6565,208.60117,523.8153L208.60117,523.8153Q208.60117,523.8153,208.60117,523.8153L208.60126,523.8153Q208.69781,523.8406,208.79846,523.8595Q208.86072,523.87146,208.92456,523.88074Q208.95709,523.88464,208.98941,523.88794L208.9895,523.88794Q208.9895,523.88794,208.9895,523.88794L208.9895,523.88794Q209.12973,523.9022,209.26563,523.90356L209.26572,523.90356L209.93274,520.37805L209.26572,523.90356L209.26572,523.90356Q210.56375,523.91675,211.46399,522.7616Q212.97226,520.7838,213.4784,513.692L213.47925,513.6798 Z"/> </g> <g style="fill:rgb(255,204,164); fill-opacity:1.0; stroke-linejoin: miter"> <path d="M326.8138,587.93066L325.94788,587.1564Q320.87006,582.71643,320.22922,580.8351Q319.3775,566.0748,316.76837,562.8511Q316.63455,562.61633,315.77243,561.8113L313.0182,559.70935Q308.94287,555.90393,307.70792,555.20605Q304.63495,553.1459,300.3949,551.7041Q296.05264,550.2855,294.33392,550.57214Q292.4746,550.93445,293.33868,552.38904Q294.28818,553.6096,295.48798,554.2562Q296.39124,554.8977,302.32724,557.75037Q303.73123,558.4745,304.66666,559.121Q306.31992,560.2554,307.62335,561.8247Q302.05774,560.7197,299.30957,560.81836Q298.66513,560.81177,297.1099,560.95447L292.17722,561.6156L288.32983,561.938Q285.81284,562.3413,286.159,564.8517Q287.0236,566.3855,289.05862,566.40955Q289.2522,566.7064,299.51563,565.9501Q302.19,565.96936,304.1772,566.6029L289.2784,568.89246Q287.28128,569.4231,286.9939,569.81885Q286.4294,570.31335,286.53494,570.90283Q287.07642,572.59436,290.96573,572.5985Q294.40158,572.6017,303.9233,570.62585Q294.53506,571.7058,292.41852,572.6221Q290.15097,573.4717,289.89883,573.9785Q289.43198,574.57837,290.04874,575.0875Q291.2804,575.9684,293.05594,576.1417Q294.11096,576.29285,296.40753,575.98535L302.95575,576.40564Q305.42865,585.9363,307.3363,588.36743Q308.08572,589.4131,308.8981,590.121Q310.12164,591.15674,311.39822,591.9076L316.48148,596.6008L326.8138,587.93066"/> </g> <g style="fill:rgb(255,255,255); fill-opacity:1.0; stroke-linejoin: miter"> <path d="M328.36026,583.17126L312.99655,596.88257L318.36487,603.4999Q326.6693,598.4437,329.05573,596.18164Q331.7573,593.8721,333.6288,589.7849L328.36026,583.17126"/> </g> <g style="fill:rgb(0,0,0); fill-opacity:1.0; stroke-linejoin: miter"> <path d="M334.26752,587.39954L315.08984,603.62585L343.28116,633.2622Q348.30542,628.88416,353.0243,623.87256Q356.65628,619.7783,359.87698,615.5436L359.88065,615.5436L359.28793,614.94214L334.26752,587.39954 Z"/> </g> <g style="fill:rgb(255,0,0); fill-opacity:0.14901961; stroke-linejoin: miter"> <path d="M292.94205,572.41187L293.75818,572.35376Q296.2354,572.18164,298.45435,571.9923Q300.23114,571.8297,300.5119,571.79224Q301.1505,571.7223,301.71017,571.6471Q302.2675,571.57166,302.7459,571.49097Q303.02368,571.45337,304.03946,571.2396Q305.0211,571.0237,306.3462,570.6052L292.94205,572.41187"/> </g> <g style="fill:rgb(128,255,251); fill-opacity:1.0; stroke-linejoin: miter"> <path d="M376.52902,599.3671Q364.78845,599.6774,358.51923,605.10455Q354.91934,606.66614,345.79846,625.2863Q344.0055,627.8535,340.9889,629.01825Q339.11017,629.61755,336.68802,629.61755Q334.4399,629.61755,331.72363,629.10126Q304.81232,622.01306,301.51746,622.01306Q301.3547,622.01306,301.24957,622.03033Q298.2818,621.6651,295.4901,621.6651Q291.151,621.6651,287.23724,622.5475Q280.53888,623.92786,272.74783,628.15344Q271.15012,628.22284,244.07834,647.67426Q237.39009,651.82715,231.7893,652.91455Q230.10408,653.24915,228.44313,653.24915Q222.86644,653.24915,217.56325,649.4773Q212.2882,646.41174,198.72365,630.08527L174.4015,634.87604L174.40324,634.87604Q179.9333,641.664,186.57556,647.90356Q222.86914,679.98376,269.65732,679.98376Q272.0154,679.98376,274.40015,679.9023Q324.72394,676.8918,358.9673,640.5244Q375.49066,621.89856,383.50165,600.3611L383.5055,600.3611Q380.48547,599.6922,377.03793,599.36975L376.52902,599.3671 Z"/> </g> <g style="fill:rgb(0,0,0); fill-opacity:0.2784314; stroke-linejoin: miter"> <path d="M368.83725,628.06366Q332.4205,642.7114,328.64642,643.75995Q314.17804,648.9119,300.24377,651.71564Q285.43146,655.749,205.58356,662.0666L205.58562,662.0666Q234.69078,679.98376,269.65732,679.98376Q272.0154,679.98376,274.40015,679.9023Q324.72394,676.8918,358.9673,640.5244Q364.35696,634.4489,368.84094,628.06366 Z"/> </g> <g style="fill:rgb(0,0,0); fill-opacity:0.047058824; stroke-linejoin: miter"> <path d="M262.15558,455.5094Q219.92139,458.3033,191.02281,489.30185Q162.99948,521.13184,164.46045,563.5569Q167.12657,605.91943,198.07228,634.8919Q230.6124,663.2482,272.12305,661.64996Q315.59567,658.78217,344.06378,627.7918Q372.07138,595.95764,370.59772,553.52637Q368.07486,511.32172,336.65054,481.9323Q304.55667,453.99988,262.89917,455.47723"/> </g> </g> </svg>